<svg width="204" height="204" viewBox="0 0 204 204" fill="none" xmlns="http://www.w3.org/2000/svg">
<path d="M31.0396 0.273725C33.125 0.02857 37.2198 0.101155 39.4107 0.102904L53.8839 0.125055L101.092 0.127083L149.572 0.121852C155.723 0.116022 168.788 -0.2915 174.181 0.417146C179.955 1.20858 185.436 3.45578 190.105 6.948C197.367 12.3685 202.136 20.4883 203.334 29.471C204.028 34.7793 203.684 49.9783 203.684 56.0154L203.672 107.136L203.681 152.389C203.681 165.693 205.573 179.371 196.626 190.454C190.213 198.397 182.923 202.324 172.825 203.557C166.832 204.146 154.396 203.732 147.808 203.729L98.3779 203.735L53.0715 203.741C38.5295 203.743 24.9795 205.906 12.8836 196.281C5.89271 190.804 1.40384 182.741 0.432261 173.914C-0.275802 167.62 0.0996633 153.202 0.0979143 146.408L0.0929503 94.5968L0.102576 51.3971C0.104616 46.385 -0.172034 33.4154 0.475104 29.0143C1.3776 23.1029 3.82187 17.5337 7.56187 12.8676C13.529 5.41877 21.6395 1.31906 31.0396 0.273725Z" fill="black"/>
<path d="M47.2001 19.7138C58.0461 19.4477 73.3083 20.907 84.3913 21.3463C115.294 22.7178 146.211 23.8051 177.133 24.6079C172.752 28.8571 163.129 35.3209 157.745 39.1694L127.773 60.7337C124.555 63.0345 116.987 67.8997 114.74 70.5547C112.781 72.8666 109.7 82.7725 108.898 85.9802C109.942 89.0378 113.294 94.7093 115.02 97.7847L125.056 115.703C136.16 135.616 147.619 157.117 159.118 176.654C160.585 179.184 161.357 180.831 162.191 183.606C153.962 182.822 139.506 183.262 130.729 183.143L58.3603 182.583C49.5406 182.542 34.8427 182.91 26.5039 182.056L62.6635 148.168C66.3009 144.743 70.2432 141.338 73.743 137.817C77.0139 134.523 78.6743 128.194 80.2467 123.726C81.7532 119.473 83.3098 115.234 84.9166 111.016C84.2357 108.136 82.3595 104.046 81.1545 101.204L74.9364 86.5583L54.5958 38.2351C52.9299 34.2774 47.8085 23.0798 47.2001 19.7138Z" fill="#FE9401"/>
<path d="M102.779 109.296C103.569 109.944 126.187 150.32 128.464 154.928C126.493 153.418 124.587 152.063 122.552 150.637C119.136 148.492 94.9847 135.036 94.3667 133.41C94.5728 130.031 101.095 112.634 102.779 109.296Z" fill="black"/>
<path d="M86.2462 148.221C88.4223 148.845 95.5181 153.366 97.8414 154.768C104.738 158.995 111.685 163.143 118.678 167.215C112.026 166.935 106.327 166.894 99.6866 166.953C88.6494 167.008 77.9086 166.696 66.835 166.932C68.9752 164.277 72.2295 161.391 74.7595 158.989C78.549 155.36 82.3782 151.768 86.2462 148.221Z" fill="black"/>
<path d="M74.8823 44.7007C75.7388 44.9942 97.308 64.2763 98.3632 65.591C97.4392 70.3973 95.2063 75.924 93.501 80.6198C93.0576 82.0111 92.7792 83.9065 92.5113 85.376C90.4276 81.8948 88.1956 76.4609 86.5976 72.6483L79.4566 55.5458C78.485 53.2409 75.3403 46.5176 74.8823 44.7007Z" fill="black"/>
<path d="M91.6011 37.2625C96.273 38.072 101.975 38.0912 106.82 38.3034L130.729 39.3056C126.858 41.4831 124.578 43.0543 121.071 45.672L110.009 53.7872C105.677 50.6084 96.3371 41.6884 91.7949 37.9597C91.7305 37.7274 91.6658 37.4951 91.6011 37.2625Z" fill="black"/>
</svg>
